<?xml version="1.0"?>
<svg version="1.1" xmlns="http://www.w3.org/2000/svg" width="400" height="200" style="border: dashed 2px #aaa"><path fill="#" d="M15.7998046875,106.474609375l0-2.005859375q0-2.08203125,0.06982421875-4.13232421875t0.12060546875-4.13232421875q0-0.3935546875-0.025390625-0.8759765625q-0.0126953125-0.1396484375-0.0126953125-0.2666015625q0-0.3173828125,0.05078125-0.6220703125q0.0634765625-0.40625,0.31103515625-0.6982421875t0.81884765625-0.2919921875q0.4697265625,0,0.71728515625,0.1015625t0.34912109375,0.29833984375t0.1142578125,0.4951171875t0.0126953125,0.69189453125q0,2.107421875-0.05078125,4.2275390625q-0.0380859375,1.4091796875-0.0380859375,2.818359375q0,0.7109375,0.0126953125,1.421875q0.025390625,2.107421875,0.19677734375,4.21484375t0.57763671875,4.1640625q1.26953125-0.05078125,2.5390625-0.126953125t2.5390625-0.076171875q0.126953125,0,0.36181640625,0.025390625t0.4697265625,0.0888671875t0.39990234375,0.1650390625t0.1650390625,0.2919921875q0,0.126953125-0.1142578125,0.2158203125t-0.2158203125,0.1396484375l-0.025390625,0q-0.203125,0.1015625-0.80615234375,0.19677734375t-1.37109375,0.14599609375t-1.6123046875,0.0888671875t-1.5869140625,0.0634765625t-1.28857421875,0.0380859375t-0.6728515625,0.0126953125l-0.1142578125,0q-0.3046875,0-0.685546875-0.1015625q-0.45703125-0.126953125-0.5712890625-0.4951171875q-0.228515625-0.939453125-0.36181640625-1.94873046875t-0.203125-2.05029296875t-0.06982421875-2.08203125z M27.322958984375,108.9501953125q0-2.7548828125,0.24755859375-5.51611328125t1.03466796875-5.43994140625q0.228515625-0.7998046875,0.5966796875-1.58056640625t0.9013671875-1.39013671875t1.26953125-0.990234375t1.751953125-0.380859375l0.2666015625,0.025390625q1.091796875,0.15234375,1.6123046875,0.88232421875t0.5205078125,1.82177734375q0,0.2919921875-0.06982421875,0.72998046875t-0.22216796875,0.84423828125t-0.41259765625,0.69189453125t-0.65380859375,0.28564453125q-0.177734375-0.025390625-0.32373046875-0.0634765625t-0.27294921875-0.1650390625q0.203125-0.4443359375,0.36181640625-0.9267578125t0.15869140625-1.1044921875q0-0.228515625-0.0380859375-0.583984375t-0.14599609375-0.70458984375t-0.28564453125-0.609375t-0.4951171875-0.26025390625q-0.7998046875,0-1.345703125,0.89501953125t-0.9140625,2.28515625t-0.5458984375,3.072265625t-0.27294921875,3.25t-0.10791015625,2.8310546875t-0.0126953125,1.78369140625q0,0.609375-0.0126953125,1.345703125l0,0.1650390625q0.0126953125,0.6474609375,0.0888671875,1.2314453125q0.1015625,0.66015625,0.3935546875,1.142578125t0.9140625,0.55859375q0.1904296875,0.025390625,0.3681640625,0.025390625q0.736328125,0,1.3330078125-0.4189453125q0.736328125-0.5205078125,1.3076171875-1.35205078125t1.015625-1.828125t0.81884765625-1.88525390625t0.72998046875-1.47265625t0.736328125-0.583984375q0.126953125,0,0.380859375,0.05078125t0.25390625,0.2412109375q0,0.05078125-0.025390625,0.1396484375t-0.0634765625,0.1396484375q-0.3427734375,1.345703125-0.86962890625,2.79296875t-1.345703125,2.63427734375t-2.005859375,1.93603515625t-2.85009765625,0.7490234375q-1.193359375,0-1.93603515625-0.45068359375t-1.142578125-1.2060546875t-0.5458984375-1.70751953125t-0.14599609375-1.9296875z"/><path fill="#" d=""/></svg>
